<svg width="18" height="16" viewBox="0 0 18 16" fill="none" xmlns="http://www.w3.org/2000/svg">
<path d="M10.0833 8.18332C10.528 7.79844 10.8846 7.32239 11.1291 6.78751C11.3735 6.25262 11.5 5.67141 11.5 5.08332C11.5 3.97825 11.061 2.91845 10.2796 2.13705C9.4982 1.35564 8.43839 0.916656 7.33332 0.916656C6.22825 0.916656 5.16845 1.35564 4.38705 2.13705C3.60564 2.91845 3.16666 3.97825 3.16666 5.08332C3.16665 5.67141 3.29316 6.25262 3.53759 6.78751C3.78203 7.32239 4.13868 7.79844 4.58332 8.18332C3.41677 8.71156 2.42704 9.5646 1.73247 10.6404C1.0379 11.7163 0.667883 12.9694 0.666656 14.25C0.666656 14.471 0.754454 14.683 0.910734 14.8392C1.06701 14.9955 1.27898 15.0833 1.49999 15.0833C1.721 15.0833 1.93297 14.9955 2.08925 14.8392C2.24553 14.683 2.33332 14.471 2.33332 14.25C2.33332 12.9239 2.86011 11.6521 3.79779 10.7145C4.73547 9.77678 6.00724 9.24999 7.33332 9.24999C8.65941 9.24999 9.93118 9.77678 10.8689 10.7145C11.8065 11.6521 12.3333 12.9239 12.3333 14.25C12.3333 14.471 12.4211 14.683 12.5774 14.8392C12.7337 14.9955 12.9456 15.0833 13.1667 15.0833C13.3877 15.0833 13.5996 14.9955 13.7559 14.8392C13.9122 14.683 14 14.471 14 14.25C13.9988 12.9694 13.6287 11.7163 12.9342 10.6404C12.2396 9.5646 11.2499 8.71156 10.0833 8.18332ZM7.33332 7.58332C6.83887 7.58332 6.35552 7.4367 5.9444 7.162C5.53327 6.88729 5.21284 6.49685 5.02362 6.04003C4.83441 5.58322 4.7849 5.08055 4.88136 4.5956C4.97782 4.11065 5.21593 3.66519 5.56556 3.31556C5.91519 2.96593 6.36065 2.72782 6.8456 2.63136C7.33055 2.5349 7.83322 2.58441 8.29003 2.77362C8.74685 2.96284 9.13729 3.28327 9.412 3.6944C9.6867 4.10552 9.83332 4.58887 9.83332 5.08332C9.83332 5.74637 9.56993 6.38225 9.10109 6.85109C8.63225 7.31993 7.99636 7.58332 7.33332 7.58332ZM17.0917 5.60832C17.0142 5.53022 16.922 5.46822 16.8205 5.42591C16.7189 5.38361 16.61 5.36182 16.5 5.36182C16.39 5.36182 16.2811 5.38361 16.1795 5.42591C16.078 5.46822 15.9858 5.53022 15.9083 5.60832L14.2417 7.27499L13.725 6.74999C13.6475 6.67188 13.5554 6.60989 13.4538 6.56758C13.3523 6.52527 13.2433 6.50349 13.1333 6.50349C13.0233 6.50349 12.9144 6.52527 12.8128 6.56758C12.7113 6.60989 12.6191 6.67188 12.5417 6.74999C12.3864 6.90613 12.2993 7.11734 12.2993 7.33749C12.2993 7.55765 12.3864 7.76886 12.5417 7.92499L13.6583 9.04166C13.8145 9.19687 14.0257 9.28398 14.2458 9.28398C14.466 9.28398 14.6772 9.19687 14.8333 9.04166L17.0583 6.81666C17.1425 6.74109 17.2103 6.64919 17.2578 6.54656C17.3053 6.44392 17.3314 6.33269 17.3345 6.21965C17.3376 6.10661 17.3177 5.99411 17.276 5.88901C17.2342 5.78391 17.1715 5.68841 17.0917 5.60832Z" fill="#0C1427"/>
</svg>
