<svg width="16" height="17" viewBox="0 0 16 17" fill="none" xmlns="http://www.w3.org/2000/svg">
<path d="M1.21168 1.1461C1.64126 0.716527 2.33774 0.716527 2.76732 1.1461L15.3538 13.7326C15.7834 14.1622 15.7834 14.8587 15.3538 15.2882L14.7881 15.8539C14.3586 16.2835 13.6621 16.2835 13.2325 15.8539L0.645999 3.26742C0.216422 2.83785 0.216422 2.14137 0.645999 1.71179L1.21168 1.1461Z" fill="white"/>
<path d="M0.645982 15.2882C0.216405 14.8586 0.216405 14.1622 0.645982 13.7326L13.2325 1.14609C13.6621 0.716512 14.3585 0.716512 14.7881 1.14609L15.3538 1.71177C15.7834 2.14135 15.7834 2.83783 15.3538 3.26741L2.7673 15.8539C2.33773 16.2835 1.64124 16.2835 1.21167 15.8539L0.645982 15.2882Z" fill="white"/>
</svg>
