<svg width="20" height="13" viewBox="0 0 20 13" fill="none" xmlns="http://www.w3.org/2000/svg">
<path d="M0 1.1C0 0.492487 0.492487 0 1.1 0H18.9C19.5075 0 20 0.492487 20 1.1V1.9C20 2.50751 19.5075 3 18.9 3H1.1C0.492487 3 0 2.50751 0 1.9V1.1Z" fill="white"/>
<path transform = "translate(0, 5)" d="M0 1.1C0 0.492487 0.492487 0 1.1 0H18.9C19.5075 0 20 0.492487 20 1.1V1.9C20 2.50751 19.5075 3 18.9 3H1.1C0.492487 3 0 2.50751 0 1.9V1.1Z" fill="white"/>
<path transform = "translate(0, 10)" d="M0 1.1C0 0.492487 0.492487 0 1.1 0H18.9C19.5075 0 20 0.492487 20 1.1V1.9C20 2.50751 19.5075 3 18.9 3H1.1C0.492487 3 0 2.50751 0 1.9V1.1Z" fill="white"/>
</svg>